<svg width="160" height="90" viewBox="0 0 160 90" fill="none" xmlns="http://www.w3.org/2000/svg">
<rect width="160" height="90" rx="6" fill="#5E43AC"/>
<path d="M95.5073 37.7104C96.6206 38.106 97.6387 38.6553 98.5615 39.3584C99.4844 40.0615 100.275 40.8745 100.935 41.7974C101.594 42.7202 102.099 43.731 102.451 44.8296C102.802 45.9282 102.985 47.0708 103 48.2573C103 49.8101 102.707 51.2676 102.121 52.6299C101.535 53.9922 100.729 55.1787 99.7041 56.1895C98.6787 57.2002 97.4849 58.0059 96.1226 58.6064C94.7603 59.207 93.3027 59.5073 91.75 59.5073H80.5C78.9473 59.5073 77.4897 59.2144 76.1274 58.6284C74.7651 58.0425 73.5786 57.2368 72.5679 56.2114C71.5571 55.186 70.7515 53.9922 70.1509 52.6299C69.5503 51.2676 69.25 49.8101 69.25 48.2573C69.25 46.7046 69.543 45.2471 70.1289 43.8848C70.7148 42.5225 71.5205 41.3359 72.5459 40.3252C73.5713 39.3145 74.7651 38.5088 76.1274 37.9082C77.4897 37.3076 78.9473 37.0073 80.5 37.0073H84.2573C84.2573 37.52 84.1621 38.0034 83.9717 38.4575C83.7812 38.9116 83.5103 39.3071 83.1587 39.644C82.8071 39.981 82.4043 40.2446 81.9502 40.4351C81.4961 40.6255 81.0127 40.728 80.5 40.7427C79.46 40.7427 78.4858 40.9404 77.5776 41.3359C76.6694 41.7314 75.8784 42.2661 75.2046 42.9399C74.5308 43.6138 73.9961 44.4121 73.6006 45.335C73.2051 46.2578 73.0073 47.2319 73.0073 48.2573C73.0073 49.2974 73.2051 50.2715 73.6006 51.1797C73.9961 52.0879 74.5308 52.8789 75.2046 53.5527C75.8784 54.2266 76.6694 54.7612 77.5776 55.1567C78.4858 55.5522 79.46 55.75 80.5 55.75H91.75C92.7754 55.75 93.7422 55.5522 94.6504 55.1567C95.5586 54.7612 96.3569 54.2266 97.0454 53.5527C97.7339 52.8789 98.2686 52.0879 98.6494 51.1797C99.0303 50.2715 99.228 49.2974 99.2427 48.2573C99.2427 46.9097 98.9058 45.6792 98.2319 44.5659C97.5581 43.4526 96.6499 42.5518 95.5073 41.8633V37.7104ZM61.7573 37.0073C61.7573 38.3403 62.0942 39.5635 62.7681 40.6768C63.4419 41.79 64.3501 42.6982 65.4927 43.4014V47.5542C64.3794 47.1587 63.3613 46.6094 62.4385 45.9062C61.5156 45.2031 60.7246 44.3901 60.0654 43.4673C59.4062 42.5444 58.9009 41.5337 58.5493 40.4351C58.1978 39.3364 58.0146 38.1938 58 37.0073C58 35.4546 58.293 33.9971 58.8789 32.6348C59.4648 31.2725 60.2705 30.0859 61.2959 29.0752C62.3213 28.0645 63.5151 27.2588 64.8774 26.6582C66.2397 26.0576 67.6973 25.7573 69.25 25.7573H80.5C82.0527 25.7573 83.5103 26.0503 84.8726 26.6362C86.2349 27.2222 87.4214 28.0278 88.4321 29.0532C89.4429 30.0786 90.2485 31.2725 90.8491 32.6348C91.4497 33.9971 91.75 35.4546 91.75 37.0073C91.75 38.5601 91.457 40.0176 90.8711 41.3799C90.2852 42.7422 89.4795 43.9287 88.4541 44.9395C87.4287 45.9502 86.2349 46.7559 84.8726 47.3564C83.5103 47.957 82.0527 48.2573 80.5 48.2573H76.7427C76.7427 47.7446 76.8379 47.2612 77.0283 46.8071C77.2188 46.353 77.4897 45.9575 77.8413 45.6206C78.1929 45.2837 78.5884 45.0127 79.0278 44.8076C79.4673 44.6025 79.958 44.5 80.5 44.5C81.5254 44.5 82.4922 44.3022 83.4004 43.9067C84.3086 43.5112 85.1069 42.9766 85.7954 42.3027C86.4839 41.6289 87.0186 40.8379 87.3994 39.9297C87.7803 39.0215 87.978 38.0474 87.9927 37.0073C87.9927 35.9819 87.8022 35.0151 87.4214 34.1069C87.0405 33.1987 86.5059 32.4004 85.8174 31.7119C85.1289 31.0234 84.3306 30.4814 83.4224 30.0859C82.5142 29.6904 81.54 29.4927 80.5 29.4927H69.25C68.21 29.4927 67.2358 29.6904 66.3276 30.0859C65.4194 30.4814 64.6284 31.0161 63.9546 31.6899C63.2808 32.3638 62.7461 33.1621 62.3506 34.085C61.9551 35.0078 61.7573 35.9819 61.7573 37.0073Z" fill="white"/>
</svg>
