<svg width="160" height="90" viewBox="0 0 160 90" fill="none" xmlns="http://www.w3.org/2000/svg">
<rect width="160" height="90" rx="6" fill="#A92E1B"/>
<g clip-path="url(#clip0)">
<path d="M103.47 60.8072H100.639V69.3012H63.8313V60.8072H61V38.1566H63.8313V24H91.3261L100.639 33.3124V38.1566H103.47V60.8072ZM92.1446 32.494H95.7943L92.1446 28.8442V32.494ZM66.6627 38.1566H97.8072V35.3253H89.3133V26.8313H66.6627V38.1566ZM97.8072 60.8072H66.6627V66.4699H97.8072V60.8072ZM100.639 40.988H63.8313V57.9759H100.639V40.988ZM70.9096 43.8193C71.4995 43.8193 72.0525 43.9299 72.5686 44.1511C73.0847 44.3723 73.5345 44.6746 73.9179 45.058C74.3013 45.4414 74.6036 45.8912 74.8248 46.4073C75.046 46.9234 75.1566 47.4764 75.1566 48.0663C75.1566 48.6561 75.046 49.2091 74.8248 49.7252C74.6036 50.2414 74.3013 50.6911 73.9179 51.0745C73.5345 51.458 73.0847 51.7603 72.5686 51.9815C72.0525 52.2027 71.4995 52.3133 70.9096 52.3133H69.494V55.1446H66.6627V43.8193H70.9096ZM70.9096 49.4819C71.293 49.4819 71.6248 49.3418 71.905 49.0617C72.1852 48.7815 72.3253 48.4497 72.3253 48.0663C72.3253 47.6829 72.1852 47.3511 71.905 47.0709C71.6248 46.7907 71.293 46.6506 70.9096 46.6506H69.494V49.4819H70.9096ZM80.8193 43.8193C81.6008 43.8193 82.3308 43.9667 83.0091 44.2617C83.6875 44.5566 84.2921 44.9621 84.8229 45.4783C85.3538 45.9944 85.7593 46.5916 86.0395 47.27C86.3197 47.9483 86.4672 48.6856 86.4819 49.4819C86.4819 50.2635 86.3345 50.9934 86.0395 51.6718C85.7446 52.3501 85.3391 52.9547 84.8229 53.4856C84.3068 54.0165 83.7096 54.422 83.0312 54.7022C82.3529 54.9824 81.6156 55.1298 80.8193 55.1446H77.988V43.8193H80.8193ZM80.8193 52.3133C81.2174 52.3133 81.5861 52.2395 81.9253 52.0921C82.2644 51.9446 82.5594 51.7455 82.8101 51.4948C83.0607 51.2441 83.2672 50.9418 83.4294 50.5879C83.5916 50.234 83.6653 49.8653 83.6506 49.4819C83.6506 49.0838 83.5769 48.7151 83.4294 48.3759C83.2819 48.0368 83.0829 47.7418 82.8322 47.4912C82.5815 47.2405 82.2792 47.034 81.9253 46.8718C81.5713 46.7096 81.2027 46.6359 80.8193 46.6506V52.3133ZM89.3133 43.8193H96.3916V46.6506H92.1446V49.4819H96.3916V52.3133H92.1446V55.1446H89.3133V43.8193Z" fill="white"/>
</g>
<defs>
<clipPath id="clip0">
<rect x="61" y="24" width="45.3012" height="45.3012" fill="white"/>
</clipPath>
</defs>
</svg>
